<svg width="193" height="32" viewBox="0 0 193 32" fill="none" xmlns="http://www.w3.org/2000/svg">
<path d="M78.6589 14.5084C78.6625 15.2912 78.4719 16.0622 78.1046 16.7496C77.7025 17.4779 77.0944 18.0657 76.3596 18.4363C75.4309 18.8954 74.4061 19.1158 73.3747 19.0781H70.9317V24.7992H68V9.89681H73.3818C74.3772 9.86785 75.3659 10.0724 76.2716 10.4945C77.0169 10.8463 77.6408 11.419 78.062 12.1378C78.4661 12.859 78.6723 13.6779 78.6589 14.5084ZM73.2561 16.6648C73.9052 16.7187 74.5499 16.5164 75.057 16.0997C75.2588 15.8913 75.4154 15.6419 75.5165 15.3677C75.6175 15.0935 75.6608 14.8007 75.6434 14.5084C75.6434 13.0566 74.8477 12.3307 73.2563 12.3307H70.9317V16.6648H73.2561ZM87.2653 12.8004C88.084 12.7853 88.8923 12.9878 89.6108 13.3882C90.3027 13.788 90.8608 14.3905 91.2128 15.1176C91.6172 15.972 91.8148 16.9128 91.7893 17.8612V24.7992H88.8569V18.2658C88.9061 17.4789 88.6561 16.7028 88.1589 16.0988C87.9162 15.8423 87.6224 15.6419 87.2973 15.5112C86.9721 15.3804 86.6233 15.3223 86.2742 15.3408C85.9199 15.3214 85.5655 15.379 85.2347 15.5097C84.9038 15.6404 84.6038 15.8411 84.3547 16.0988C83.8547 16.7012 83.6044 17.4785 83.6567 18.2658V24.7992H80.7319V9H83.6567V14.4437C84.0506 13.9176 84.5695 13.5024 85.1645 13.2374C85.8255 12.9381 86.5424 12.7887 87.2656 12.7997L87.2653 12.8004ZM93.8199 18.8498C93.7979 17.7475 94.0374 16.6562 94.5179 15.6686C94.9445 14.7891 95.6047 14.0494 96.4234 13.5336C97.2343 13.0331 98.1665 12.7743 99.1143 12.7864C99.9023 12.7687 100.682 12.9522 101.383 13.3202C101.995 13.6439 102.528 14.1036 102.943 14.6653V12.9783H105.895V24.7994H102.95V23.07C102.545 23.6497 102.01 24.122 101.39 24.4472C100.682 24.821 99.8939 25.0082 99.097 24.9916C98.1532 25.0012 97.2266 24.7345 96.4272 24.223C95.6087 23.6929 94.9494 22.9431 94.5216 22.0559C94.0391 21.0574 93.7985 19.9554 93.8201 18.8425L93.8199 18.8498ZM102.95 18.8925C102.968 18.2437 102.824 17.6008 102.531 17.0243C102.272 16.5255 101.88 16.1112 101.4 15.8286C100.936 15.5539 100.408 15.4101 99.8717 15.4122C99.3328 15.4067 98.8028 15.5521 98.3393 15.8326C97.8759 16.113 97.4969 16.5178 97.2436 17.0028C96.9459 17.5701 96.798 18.2064 96.8143 18.8496C96.7998 19.4993 96.9475 20.1422 97.2436 20.7178C97.5043 21.224 97.8952 21.6483 98.3744 21.9453C98.8255 22.2253 99.3436 22.3731 99.8717 22.3724C100.408 22.3744 100.936 22.2307 101.4 21.9559C101.88 21.6734 102.272 21.2591 102.531 20.7603C102.825 20.1813 102.969 19.5355 102.95 18.8839V18.8925ZM111.703 14.8145C112.069 14.1884 112.591 13.6726 113.217 13.3199C113.842 12.9673 114.548 12.7904 115.263 12.8074V15.9389H114.488C113.736 15.8814 112.991 16.1181 112.404 16.6009C112.139 16.9175 111.94 17.286 111.82 17.6838C111.7 18.0815 111.661 18.5001 111.706 18.9138V24.7992H108.775V12.9711H111.706L111.703 14.8145ZM131.645 12.8004C132.278 12.7722 132.91 12.8759 133.503 13.1052C134.095 13.3346 134.635 13.6847 135.09 14.1342C135.543 14.6335 135.891 15.221 136.115 15.8613C136.338 16.5016 136.433 17.1814 136.392 17.8598V24.7992H133.46V18.2658C133.51 17.4915 133.26 16.7282 132.762 16.1408C132.516 15.8904 132.221 15.6955 131.897 15.5687C131.572 15.4418 131.225 15.3858 130.878 15.4043C130.529 15.3865 130.18 15.4428 129.854 15.5696C129.528 15.6964 129.231 15.8909 128.982 16.1408C128.735 16.4309 128.546 16.7679 128.426 17.1325C128.306 17.4971 128.258 17.8823 128.284 18.2658V24.7992H125.363V18.2658C125.413 17.4915 125.163 16.7282 124.665 16.1408C124.419 15.8904 124.124 15.6955 123.8 15.5687C123.475 15.4418 123.128 15.3858 122.781 15.4043C122.428 15.3846 122.075 15.44 121.745 15.5668C121.415 15.6936 121.114 15.8891 120.861 16.1408C120.614 16.4309 120.425 16.7679 120.305 17.1325C120.185 17.4971 120.137 17.8822 120.163 18.2658V24.7992H117.231V12.9711H120.163V14.3953C120.548 13.8903 121.048 13.4875 121.618 13.2211C122.232 12.9319 122.901 12.786 123.576 12.7941C124.422 12.7791 125.257 12.9812 126.005 13.3819C126.707 13.7624 127.282 14.3454 127.66 15.0579C128.047 14.3645 128.616 13.7951 129.304 13.414C130.018 13.0038 130.826 12.7923 131.645 12.8004V12.8004ZM138.43 18.8498C138.408 17.7475 138.648 16.6562 139.128 15.6686C139.555 14.7891 140.215 14.0494 141.034 13.5336C141.845 13.0331 142.777 12.7743 143.725 12.7864C144.513 12.7687 145.293 12.9522 145.993 13.3202C146.605 13.6439 147.139 14.1036 147.553 14.6653V12.9783H150.506V24.7994H147.553V23.07C147.149 23.6497 146.614 24.122 145.993 24.4472C145.286 24.821 144.497 25.0082 143.7 24.9916C142.757 25.0012 141.83 24.7345 141.031 24.223C140.212 23.6929 139.553 22.9431 139.125 22.0559C138.643 21.0574 138.402 19.9554 138.423 18.8425L138.43 18.8498ZM147.56 18.8925C147.578 18.2437 147.434 17.6008 147.142 17.0243C146.882 16.5255 146.49 16.1112 146.011 15.8286C145.547 15.5539 145.019 15.4101 144.482 15.4122C143.943 15.4067 143.413 15.5521 142.95 15.8326C142.486 16.113 142.107 16.5178 141.854 17.0028C141.555 17.5673 141.405 18.2012 141.418 18.8425C141.403 19.4923 141.551 20.1352 141.847 20.7108C142.108 21.217 142.499 21.6413 142.978 21.9383C143.429 22.2183 143.947 22.3661 144.475 22.3654C145.012 22.3674 145.539 22.2237 146.004 21.9489C146.483 21.6664 146.875 21.2521 147.135 20.7533C147.427 20.1767 147.571 19.5339 147.553 18.885L147.56 18.8925ZM156.314 14.8145C156.679 14.1884 157.202 13.6726 157.827 13.3199C158.453 12.9673 159.159 12.7904 159.873 12.8074V15.9389H159.099C158.347 15.8814 157.601 16.1181 157.015 16.6009C156.75 16.9175 156.551 17.286 156.431 17.6838C156.311 18.0815 156.272 18.5001 156.317 18.9138V24.7992H153.385V12.9711H156.317L156.314 14.8145ZM168.703 24.7992L164.767 19.7606V24.7992H161.835V9H164.767V17.9885L168.661 12.9711H172.48L167.363 18.9065L172.515 24.7992H168.703ZM184.848 18.6289C184.851 19.0149 184.823 19.4005 184.764 19.7819H176.284C176.31 20.5406 176.622 21.2598 177.156 21.7889C177.675 22.2737 178.359 22.5338 179.062 22.5143C179.545 22.5443 180.026 22.4243 180.441 22.17C180.856 21.9158 181.186 21.5392 181.386 21.0901H184.557C184.233 22.2138 183.559 23.1994 182.637 23.8976C181.626 24.6499 180.398 25.0368 179.147 24.9972C178.092 25.0151 177.051 24.7514 176.127 24.2325C175.247 23.7355 174.526 22.9906 174.05 22.0868C173.54 21.1007 173.285 19.9988 173.307 18.8844C173.283 17.7641 173.535 16.6556 174.04 15.6604C174.505 14.7598 175.218 14.0177 176.092 13.5254C177.019 13.038 178.047 12.7819 179.091 12.7782C180.134 12.7745 181.164 13.0233 182.095 13.5042C182.954 13.9748 183.66 14.6908 184.126 15.5646C184.621 16.5058 184.869 17.5609 184.849 18.6285L184.848 18.6289ZM181.812 17.7748C181.818 17.4246 181.748 17.0773 181.607 16.758C181.466 16.4387 181.257 16.1552 180.995 15.9281C180.452 15.4607 179.758 15.2137 179.048 15.2343C178.376 15.2133 177.721 15.4523 177.215 15.9032C176.699 16.3924 176.375 17.0565 176.304 17.7714L181.812 17.7748ZM190.397 15.4262V21.1484C190.383 21.3047 190.401 21.4622 190.449 21.6111C190.498 21.76 190.577 21.8969 190.68 22.0131C190.955 22.2177 191.294 22.3126 191.633 22.2801H192.995V24.7992H191.152C190.657 24.8787 190.15 24.8396 189.672 24.6849C189.194 24.5302 188.758 24.2641 188.398 23.9078C188.039 23.5515 187.765 23.1147 187.6 22.632C187.435 22.1494 187.382 21.6341 187.445 21.127V15.4337H186.064V12.9783H187.446V10.0462H190.399V12.9711H192.996V15.4264L190.397 15.4262Z" fill="#143040"/>
<path d="M30.3411 27.7443C29.687 27.7443 29.0445 27.5738 28.4784 27.2501C27.9122 26.9263 27.4424 26.4607 27.1163 25.9001C26.7903 25.3396 26.6195 24.704 26.6211 24.0574C26.6228 23.4108 26.7968 22.7761 27.1257 22.2172L39.6045 1.83081C39.9316 1.27391 40.4009 0.811695 40.9655 0.4904C41.53 0.169106 42.17 0 42.8214 0C43.4729 0 44.1129 0.169106 44.6774 0.4904C45.242 0.811695 45.7113 1.27391 46.0384 1.83081L56.8892 22.2172C57.2182 22.7762 57.3923 23.4111 57.3939 24.0579C57.3955 24.7046 57.2245 25.3403 56.8982 25.9009C56.572 26.4614 56.1019 26.927 55.5355 27.2507C54.9692 27.5743 54.3265 27.7446 53.6723 27.7443H30.3411Z" fill="url(#paint0_linear_10022_5536)"/>
<path d="M12.9834 30.1693L0.504652 9.8987C0.175716 9.3398 0.0016525 8.70505 1.17084e-05 8.05844C-0.00162909 7.41182 0.169211 6.77622 0.495306 6.2157C0.821402 5.65518 1.29122 5.18956 1.8574 4.8658C2.42358 4.54203 3.0661 4.37156 3.72018 4.37158H27.0505C27.7046 4.3716 28.3471 4.54209 28.9132 4.86587C29.4794 5.18965 29.9492 5.65527 30.2753 6.21578C30.6013 6.7763 30.7721 7.41189 30.7705 8.05849C30.7688 8.70508 30.5948 9.33982 30.2659 9.8987L19.414 30.1693C19.0869 30.7262 18.6175 31.1884 18.053 31.5097C17.4884 31.831 16.8484 32.0001 16.197 32.0001C15.5456 32.0001 14.9056 31.831 14.341 31.5097C13.7765 31.1884 13.3071 30.7262 12.98 30.1693H12.9834Z" fill="url(#paint1_linear_10022_5536)"/>
<defs>
<linearGradient id="paint0_linear_10022_5536" x1="42.0075" y1="0" x2="42.0075" y2="27.7443" gradientUnits="userSpaceOnUse">
<stop stop-color="#0088FF"/>
<stop offset="1" stop-color="#00A3FF"/>
</linearGradient>
<linearGradient id="paint1_linear_10022_5536" x1="15.3853" y1="26.6779" x2="15.3853" y2="5.09643" gradientUnits="userSpaceOnUse">
<stop stop-color="#0088FF"/>
<stop offset="1" stop-color="#00A3FF" stop-opacity="0.74"/>
</linearGradient>
</defs>
</svg>
